<svg width="24" height="45" viewBox="0 0 24 45" fill="none" xmlns="http://www.w3.org/2000/svg">
<g id="ChevronRight" clip-path="url(#clip0_11_455)">
<path id="Vector" fill-rule="evenodd" clip-rule="evenodd" d="M0.565898 0.698249C0.724235 0.540421 0.912334 0.415202 1.11942 0.329764C1.32651 0.244327 1.54851 0.200348 1.77272 0.200348C1.99692 0.200348 2.21893 0.244327 2.42601 0.329764C2.6331 0.415202 2.8212 0.540421 2.97953 0.698249L23.4341 21.0354C23.5928 21.1928 23.7188 21.3799 23.8047 21.5858C23.8906 21.7917 23.9349 22.0124 23.9349 22.2353C23.9349 22.4582 23.8906 22.6789 23.8047 22.8848C23.7188 23.0907 23.5928 23.2778 23.4341 23.4352L2.97953 43.7724C2.65947 44.0906 2.22536 44.2694 1.77272 44.2694C1.32007 44.2694 0.885966 44.0906 0.565898 43.7724C0.24583 43.4541 0.066017 43.0225 0.066017 42.5725C0.066017 42.1224 0.24583 41.6908 0.565898 41.3726L19.817 22.2353L0.565898 3.09803C0.40716 2.9406 0.281218 2.75359 0.195286 2.54769C0.109355 2.34179 0.0651245 2.12106 0.0651245 1.89814C0.0651245 1.67522 0.109355 1.45449 0.195286 1.24859C0.281218 1.0427 0.40716 0.855677 0.565898 0.698249Z" fill="white"/>
</g>
<defs>
<clipPath id="clip0_11_455">
<rect width="24" height="44.4706" fill="white"/>
</clipPath>
</defs>
</svg>
